<svg xmlns="http://www.w3.org/2000/svg" xmlns:xlink="http://www.w3.org/1999/xlink" width="97.518" height="89.623" viewBox="0 0 97.518 89.623"><defs><style>.a{fill:url(#a);}.b{fill:url(#b);}.c{fill:url(#c);}.d{fill:url(#d);}.e{fill:url(#e);}.f{fill:url(#f);}</style><linearGradient id="a" x1="0.884" y1="0.306" x2="0.5" y2="1" gradientUnits="objectBoundingBox"><stop offset="0" stop-color="#8ac8cb"/><stop offset="0.748" stop-color="#4f9b99"/><stop offset="1" stop-color="#489693"/></linearGradient><linearGradient id="b" x1="1" y1="0.706" x2="0" y2="0.698" gradientUnits="objectBoundingBox"><stop offset="0" stop-color="#8ac8cb"/><stop offset="1" stop-color="#489693"/></linearGradient><linearGradient id="c" x1="0.727" y1="0.5" x2="0" y2="0.5" xlink:href="#b"/><linearGradient id="d" x1="0.774" y1="0.5" x2="0" y2="0.5" xlink:href="#b"/><linearGradient id="e" x1="1" y1="0.326" x2="0" y2="0.332" xlink:href="#b"/><linearGradient id="f" x1="1" y1="0.405" x2="0.268" y2="0.641" xlink:href="#b"/></defs><g transform="translate(-109.469 -258.898)"><path class="a" d="M329.839,396.617a10.9,10.9,0,0,0,14.8-3.891,10.737,10.737,0,0,0-4.045-14.8c-5.13-3.108-34.682-7.618-34.682-7.618S324.55,393.658,329.839,396.617Z" transform="translate(-147.308 -59.238)"/><g transform="translate(109.469 258.898)"><path class="b" d="M282.31,402.007a8.4,8.4,0,0,0,16.8,0c0-4.67-8.4-26.307-8.4-26.307S282.31,397.338,282.31,402.007Z" transform="translate(-246.112 -320.572)"/><path class="c" d="M221.665,377.95A10.766,10.766,0,1,0,232.4,396.617c5.289-2.96,23.956-26.307,23.956-26.307S226.8,374.843,221.665,377.95Z" transform="translate(-216.263 -318.136)"/><path class="d" d="M233.75,326.576a8.55,8.55,0,0,0,3.108,11.509c4.045,2.335,27.064,5.755,27.064,5.755s-14.628-18.042-18.662-20.377a7.7,7.7,0,0,0-4.2-1.1,8.665,8.665,0,0,0-7.311,4.209Z" transform="translate(-223.678 -296.468)"/><path class="e" d="M277.768,286.249c0,5.908,10.89,33.75,10.89,33.75s10.885-27.842,10.885-33.75a10.89,10.89,0,1,0-21.775,0Z" transform="translate(-244.058 -275.115)"/><path class="f" d="M355.878,305.881c-4.045,2.335-18.508,20.531-18.508,20.531s23.019-3.579,26.9-5.914a8.407,8.407,0,0,0-4.2-15.708,10.479,10.479,0,0,0-4.2,1.091Z" transform="translate(-270.995 -288.526)"/></g></g></svg>