<svg xmlns="http://www.w3.org/2000/svg" width="284.75" height="170.229" viewBox="0 0 284.75 170.229"><defs><style>.a{fill:#efefef;}.b{fill:#fff;}.c{fill:#ccc;}.d{fill:#489693;}.e{fill:#ffb9b9;}.f{fill:#4b4b4b;}.g{fill:#3f3d56;}</style></defs><g transform="translate(0 -0.001)"><path class="a" d="M881.42,592.175a14.714,14.714,0,0,0,5.279-12.684,11.9,11.9,0,0,0-8.843-10.1c-4.666-1.006-9.984,1.779-11.4,6.336-.78-8.787-1.679-17.942-6.35-25.425a26.926,26.926,0,0,0-19.5-12.491,24.159,24.159,0,0,0-21.252,8.676,21.926,21.926,0,0,0-2.7,22.574c2.555,5.3,7.262,9.245,12.194,12.454a78.7,78.7,0,0,0,53.826,11.775Z" transform="translate(-814.681 -423.858)"/><path class="b" d="M881.286,545.638a129.86,129.86,0,0,1,38.156,51.594c.364.892-1.084,1.28-1.444.4A128.414,128.414,0,0,0,880.227,546.7C879.479,546.089,880.544,545.035,881.286,545.638Z" transform="translate(-868.759 -429.093)"/><path class="a" d="M172.377,547.781c-5.007-4.231-8.049-10.915-7.251-17.422s5.738-12.488,12.146-13.87,13.713,2.443,15.659,8.7c1.071-12.069,2.306-24.643,8.722-34.921a36.982,36.982,0,0,1,26.779-17.156c10.906-1.191,22.388,3.308,29.19,11.916s8.467,21.122,3.7,31c-3.509,7.28-9.975,12.7-16.749,17.106a108.093,108.093,0,0,1-73.929,16.173" transform="translate(20.707 -380.302)"/><path class="b" d="M264.541,483.863a176.857,176.857,0,0,0-24.647,24.474,177.371,177.371,0,0,0-27.76,46.391c-.5,1.225,1.489,1.758,1.983.547A176.377,176.377,0,0,1,266,485.318c1.027-.836-.436-2.284-1.454-1.454Z" transform="translate(3.004 -387.492)"/><path class="a" d="M424.5,359.8H543.964V237.226a47.348,47.348,0,0,0-47.295-47.295H471.795A47.348,47.348,0,0,0,424.5,237.226Z" transform="translate(-344.148 -189.93)"/><path class="c" d="M424.5,359.8h94.589V237.228a46.929,46.929,0,0,0-9.032-27.8c-.217-.3-.434-.588-.657-.878a47.283,47.283,0,0,0-10.066-9.77c-.216-.157-.433-.311-.653-.466a47.184,47.184,0,0,0-10.3-5.387c-.216-.082-.437-.164-.657-.243a47.137,47.137,0,0,0-10.182-2.4c-.215-.029-.436-.052-.657-.075a47.878,47.878,0,0,0-10.181,0c-.22.023-.441.046-.659.076a47.13,47.13,0,0,0-10.179,2.4c-.22.079-.441.161-.657.243a47.067,47.067,0,0,0-10.181,5.307c-.22.151-.44.305-.657.46a47.787,47.787,0,0,0-6.017,5.094,47.218,47.218,0,0,0-4.165,4.762c-.223.288-.44.58-.656.876a46.93,46.93,0,0,0-9.033,27.8Z" transform="translate(-319.273 -189.933)"/><ellipse class="d" cx="5.237" cy="5.237" rx="5.237" ry="5.237" transform="translate(107.681 104.573)"/><path class="e" d="M576.507,475.972h4.013l1.909-15.477h-5.922Z" transform="translate(-486.368 -309.775)"/><path class="f" d="M566.433,504.28h-7.739v4.872h12.611A4.872,4.872,0,0,0,566.433,504.28Z" transform="translate(-469.416 -339.229)"/><path class="e" d="M637.507,475.972h4.013l1.909-15.477h-5.922Z" transform="translate(-567.333 -309.775)"/><path class="f" d="M627.433,504.28h-7.739v4.872h12.611A4.872,4.872,0,0,0,627.433,504.28Z" transform="translate(-550.381 -339.229)"/><path class="e" d="M718.072,440.672a3.516,3.516,0,0,0-1.476-5.185l-13.64-37.6-6.712,3.663,15.574,35.928a3.535,3.535,0,0,0,6.254,3.19Z" transform="translate(-607.804 -329.825)"/><path class="e" d="M803.846,457.536a3.516,3.516,0,0,0,.947-5.308l4.226-39.77-7.638.349-1.756,39.119a3.535,3.535,0,0,0,4.222,5.61Z" transform="translate(-731.623 -339.625)"/><ellipse class="e" cx="8.039" cy="8.039" rx="8.039" ry="8.039" transform="translate(76.37 45.024)"/><path class="d" d="M742.667,430.474H766.9l-.029-.189c-.043-.282-4.319-28.291-1.166-37.455a3.867,3.867,0,0,0-1.987-4.773h0c-4.507-2.123-13.16-4.736-20.463,1.607a9.241,9.241,0,0,0-3.1,7.657Z" transform="translate(-670.392 -321.607)"/><path class="d" d="M724.239,411.657l10.911-2.214-5.114-12.12a4.581,4.581,0,0,0-8.872,2.29Z" transform="translate(-632.384 -327.131)"/><path class="d" d="M805.61,417.51l.656-15.037c.5-2.827-1.121-5.5-3.609-5.935s-4.92,1.525-5.419,4.373l-2.466,14.05Z" transform="translate(-727.729 -328.874)"/><path class="f" d="M739.911,517.049c-3.9,14.852-4.325,33.734-3.273,54.332l5.237-.655,9.492-39.276,5.237,39.931,5.891-.327c1.76-21.612,3.474-40.165.655-52.368Z" transform="translate(-666.83 -409.983)"/><path class="f" d="M751.458,334.129a2.6,2.6,0,0,0,4.48-1.442,2.633,2.633,0,0,0,0-.509c-.1-.967-.659-1.844-.526-2.865a1.5,1.5,0,0,1,.275-.7c1.2-1.6,4,.716,5.128-.733.692-.888-.121-2.287.409-3.28.7-1.31,2.775-.664,4.076-1.382,1.448-.8,1.361-3.019.408-4.37a6.874,6.874,0,0,0-5.212-2.653,13.98,13.98,0,0,0-5.889,1.149,11.768,11.768,0,0,0-5.564,3.858,9.419,9.419,0,0,0-.952,8.019A15.116,15.116,0,0,0,751.458,334.129Z" transform="translate(-672.346 -274.853)"/><path class="g" d="M265.887,707.972H507.529a.39.39,0,1,0,0-.779H265.887a.39.39,0,1,0,0,.779Z" transform="translate(-256.062 -537.892)"/><path class="b" d="M499.627,396.6h42.549a2.116,2.116,0,0,0,2.127-2.1V299.53a2.116,2.116,0,0,0-2.127-2.1H499.627a2.116,2.116,0,0,0-2.127,2.1V394.5A2.116,2.116,0,0,0,499.627,396.6Z" transform="translate(-368.381 -262.245)"/><rect class="c" width="46.804" height="0.655" transform="translate(129.119 65.915)"/><rect class="c" width="46.804" height="0.655" transform="translate(128.956 103.264)"/><rect class="c" width="0.655" height="99.499" transform="translate(160.54 35.185)"/><rect class="c" width="0.655" height="99.499" transform="translate(144.175 35.185)"/></g></svg>